<?xml version="1.0" encoding="UTF-8"?>
<!DOCTYPE svg PUBLIC "-//W3C//DTD SVG 1.1//EN" "http://www.w3.org/Graphics/SVG/1.1/DTD/svg11.dtd">
<svg xmlns="http://www.w3.org/2000/svg" version="1.1" width="800px" height="800px" style="shape-rendering:geometricPrecision; text-rendering:geometricPrecision; image-rendering:optimizeQuality; fill-rule:evenodd; clip-rule:evenodd" xmlns:xlink="http://www.w3.org/1999/xlink">
<g><path style="opacity:1" fill="#e94334" d="M 514.5,144.5 C 560.976,164.476 594.81,197.476 616,243.5C 616.781,244.944 616.614,246.277 615.5,247.5C 596.417,255.639 577.417,263.972 558.5,272.5C 543.276,241.444 519.943,218.61 488.5,204C 497.31,184.214 505.977,164.381 514.5,144.5 Z"/></g>
<g><path style="opacity:1" fill="#4285f4" d="M 366.5,206.5 C 439.602,202.297 495.435,230.964 534,292.5C 557.373,336.222 562.04,381.889 548,429.5C 546,434.833 544,440.167 542,445.5C 533.986,460.198 525.986,474.865 518,489.5C 516.039,494.677 514.706,500.01 514,505.5C 514.886,569.27 486.719,614.77 429.5,642C 408.09,651.102 385.757,655.269 362.5,654.5C 362.167,633.156 362.5,611.823 363.5,590.5C 390.334,589.992 413.167,580.326 432,561.5C 445.347,543.814 451.014,523.814 449,501.5C 450.349,485.788 454.349,470.788 461,456.5C 468.587,443.662 475.92,430.662 483,417.5C 499.198,371.13 489.698,330.963 454.5,297C 416.19,266.88 375.19,262.88 331.5,285C 297.461,306.223 279.794,337.057 278.5,377.5C 256.833,377.5 235.167,377.5 213.5,377.5C 215.246,311.803 243.913,261.97 299.5,228C 320.636,216.675 342.97,209.509 366.5,206.5 Z"/></g>
<g><path style="opacity:1" fill="#fabc04" d="M 378.5,312.5 C 412.695,311.895 435.529,327.562 447,359.5C 452.454,381.677 448.121,401.677 434,419.5C 433.282,420.451 432.449,420.617 431.5,420C 416.131,405.629 400.465,391.629 384.5,378C 363.169,377.5 341.836,377.333 320.5,377.5C 322.994,340.679 342.327,319.012 378.5,312.5 Z"/></g>
</svg>
